<svg width="297" height="70" viewBox="0 0 297 70" fill="none" xmlns="http://www.w3.org/2000/svg">
<path d="M0.5 4C0.5 2.067 2.067 0.5 4 0.5H49C50.933 0.5 52.5 2.067 52.5 4V28C52.5 29.933 50.933 31.5 49 31.5H4C2.067 31.5 0.5 29.933 0.5 28V4Z" fill="white" stroke="#E8E8EA"/>
<path fill-rule="evenodd" clip-rule="evenodd" d="M18.8337 21.6777H16.0066L13.8866 13.5898C13.786 13.2178 13.5724 12.8889 13.2581 12.7339C12.4738 12.3443 11.6095 12.0343 10.6667 11.8779V11.5665H15.2209C15.8495 11.5665 16.3209 12.0343 16.3994 12.5775L17.4994 18.4115L20.3251 11.5665H23.0737L18.8337 21.6777ZM24.645 21.6777H21.9751L24.1736 11.5665H26.8436L24.645 21.6777ZM30.2979 14.3676C30.3764 13.823 30.8478 13.5117 31.3978 13.5117C32.2621 13.4335 33.2035 13.5898 33.9892 13.9781L34.4606 11.8011C33.6749 11.4897 32.8107 11.3333 32.0264 11.3333C29.435 11.3333 27.5493 12.7339 27.5493 14.6777C27.5493 16.1564 28.885 16.9328 29.8278 17.4006C30.8478 17.867 31.2407 18.1783 31.1621 18.6447C31.1621 19.3443 30.3764 19.6557 29.5921 19.6557C28.6493 19.6557 27.7065 19.4225 26.8436 19.033L26.3722 21.2113C27.315 21.5995 28.335 21.7559 29.2779 21.7559C32.1835 21.8327 33.9892 20.4335 33.9892 18.3334C33.9892 15.6886 30.2979 15.5336 30.2979 14.3676ZM43.3334 21.6777L41.2134 11.5665H38.9363C38.4649 11.5665 37.9934 11.8779 37.8363 12.3443L33.9106 21.6777H36.6592L37.2078 20.2003H40.5848L40.8991 21.6777H43.3334ZM39.3291 14.2895L40.1134 18.1002H37.9149L39.3291 14.2895Z" fill="#172B85"/>
<path d="M61.5 4C61.5 2.067 63.067 0.5 65 0.5H110C111.933 0.5 113.5 2.067 113.5 4V28C113.5 29.933 111.933 31.5 110 31.5H65C63.067 31.5 61.5 29.933 61.5 28V4Z" fill="white" stroke="#E8E8EA"/>
<path fill-rule="evenodd" clip-rule="evenodd" d="M88 22.8759C86.4113 24.2469 84.3504 25.0746 82.0984 25.0746C77.0735 25.0746 73 20.9538 73 15.8706C73 10.7874 77.0735 6.66663 82.0984 6.66663C84.3504 6.66663 86.4113 7.49431 88 8.86536C89.5888 7.49431 91.6497 6.66663 93.9017 6.66663C98.9266 6.66663 103 10.7874 103 15.8706C103 20.9538 98.9266 25.0746 93.9017 25.0746C91.6497 25.0746 89.5888 24.2469 88 22.8759Z" fill="#ED0006"/>
<path fill-rule="evenodd" clip-rule="evenodd" d="M88 22.8759C89.9563 21.1877 91.1967 18.6757 91.1967 15.8706C91.1967 13.0655 89.9563 10.5535 88 8.86531C89.5888 7.49428 91.6496 6.66663 93.9016 6.66663C98.9265 6.66663 103 10.7874 103 15.8706C103 20.9538 98.9265 25.0746 93.9016 25.0746C91.6496 25.0746 89.5888 24.2469 88 22.8759Z" fill="#F9A000"/>
<path fill-rule="evenodd" clip-rule="evenodd" d="M88 8.86536C89.9563 10.5535 91.1967 13.0655 91.1967 15.8706C91.1967 18.6757 89.9563 21.1877 88 22.8758C86.0438 21.1877 84.8033 18.6757 84.8033 15.8706C84.8033 13.0655 86.0438 10.5535 88 8.86536Z" fill="#FF5E00"/>
<path d="M122.5 4C122.5 2.067 124.067 0.5 126 0.5H171C172.933 0.5 174.5 2.067 174.5 4V28C174.5 29.933 172.933 31.5 171 31.5H126C124.067 31.5 122.5 29.933 122.5 28V4Z" fill="white" stroke="#E8E8EA"/>
<path d="M155.705 16.3831C156.389 16.398 157.078 16.3528 157.76 16.4065C158.451 16.5354 158.618 17.5812 158.004 17.9238C157.585 18.1494 157.088 18.0078 156.634 18.0476H155.705V16.3831ZM158.156 14.4991C158.309 15.0362 157.791 15.5184 157.273 15.4444H155.705C155.716 14.9379 155.683 14.3882 155.72 13.9083C156.349 13.926 156.983 13.8722 157.608 13.9365C157.877 14.0039 158.101 14.2246 158.156 14.4991ZM161.932 6.53394C161.962 7.55968 161.937 8.63963 161.945 9.68617C161.943 13.941 161.949 18.1958 161.942 22.4509C161.914 24.0455 160.501 25.4311 158.917 25.4629C157.332 25.4693 155.747 25.4639 154.161 25.4657V19.0332C155.889 19.0243 157.617 19.0513 159.344 19.0197C160.144 18.9694 161.022 18.4409 161.059 17.5595C161.153 16.6743 160.319 16.062 159.526 15.9652C159.222 15.9573 159.231 15.8765 159.526 15.8412C160.282 15.6778 160.876 14.8956 160.653 14.1122C160.464 13.2883 159.553 12.9694 158.796 12.971C157.251 12.9605 155.706 12.9695 154.162 12.9665C154.172 11.7656 154.141 10.5634 154.178 9.36346C154.301 7.79764 155.75 6.50634 157.311 6.53435C158.852 6.53412 160.392 6.53412 161.932 6.53406V6.53394Z" fill="url(#paint0_linear_201_1954)"/>
<path d="M136.708 9.52575C136.747 7.93366 138.166 6.55943 139.748 6.53616C141.327 6.5313 142.907 6.53546 144.486 6.53405C144.482 11.8608 144.495 17.1882 144.479 22.5147C144.419 24.0874 143.015 25.4355 141.451 25.4633C139.868 25.469 138.286 25.4641 136.704 25.4657V18.8164C138.241 19.1795 139.852 19.334 141.42 19.0932C142.357 18.9424 143.383 18.4821 143.7 17.5098C143.934 16.6781 143.802 15.8027 143.837 14.9491V12.9666H141.124C141.111 14.2777 141.148 15.5912 141.104 16.9008C141.031 17.7057 140.234 18.2172 139.474 18.1898C138.533 18.1998 136.667 17.5075 136.667 17.5075C136.662 15.0509 136.694 11.9744 136.708 9.52598V9.52575Z" fill="url(#paint1_linear_201_1954)"/>
<path d="M145.498 13.7661C145.355 13.7964 145.469 13.2796 145.433 13.0835C145.442 11.8439 145.412 10.603 145.449 9.36426C145.571 7.79181 147.031 6.49728 148.599 6.53409H153.215C153.211 11.8609 153.224 17.1882 153.209 22.5147C153.148 24.0875 151.744 25.4354 150.18 25.4633C148.598 25.4693 147.015 25.4643 145.433 25.4658V18.1806C146.513 19.0673 147.982 19.2053 149.329 19.2077C150.344 19.2074 151.353 19.0509 152.338 18.8168V17.4821C151.228 18.0357 149.922 18.3874 148.69 18.0693C147.831 17.8555 147.208 17.0254 147.222 16.1389C147.122 15.217 147.663 14.2437 148.568 13.9697C149.693 13.6175 150.919 13.8868 151.973 14.3447C152.199 14.4629 152.429 14.6096 152.338 14.2321V13.183C150.575 12.7635 148.698 12.6091 146.927 13.0655C146.414 13.2101 145.915 13.4295 145.498 13.7662V13.7661Z" fill="url(#paint2_linear_201_1954)"/>
<path d="M183.5 4C183.5 2.067 185.067 0.5 187 0.5H232C233.933 0.5 235.5 2.067 235.5 4V28C235.5 29.933 233.933 31.5 232 31.5H187C185.067 31.5 183.5 29.933 183.5 28V4Z" fill="white" stroke="#E8E8EA"/>
<path d="M218.344 8.77081C219.118 8.62372 219.827 8.62917 220.515 8.86343C221.495 9.20664 222.475 9.56076 223.438 9.953C224.451 10.3616 225.095 11.1733 225.652 12.0831C226.665 13.7229 227.699 15.341 228.738 16.9644C228.895 17.2096 228.895 17.3403 228.679 17.5582C227.407 18.8058 226.156 20.0752 224.905 21.3445C224.716 21.5352 224.564 21.7531 224.364 21.9983C223.411 21.5842 222.312 21.3936 221.516 20.6145C219.914 19.0455 218.338 17.4493 216.763 15.8531C216.314 15.4009 216.292 14.6709 216.682 14.1915C217.109 13.6521 217.808 13.4941 218.371 13.8646C219.481 14.6 220.574 15.3519 221.657 16.1146C222.35 16.6049 223.059 16.6757 223.812 16.2998C223.958 16.229 224.104 16.1581 224.256 16.0928C224.851 15.8095 224.927 15.3845 224.467 14.9215C222.523 12.9657 220.574 11.0044 218.631 9.04866C218.555 8.98328 218.474 8.90156 218.344 8.77081Z" fill="#333F48"/>
<path d="M221.506 22.1944C221.306 22.3633 221.122 22.5594 220.905 22.6901C220.45 22.9734 219.898 22.8972 219.498 22.5376C219.438 22.4886 219.384 22.4341 219.33 22.3796C216.379 19.4105 213.429 16.4414 210.478 13.4723C210.213 13.2054 210.018 12.9112 210.007 12.5189C210.002 12.1866 210.105 11.887 210.337 11.6527C211.577 10.3943 212.812 9.14126 214.068 7.89914C214.571 7.40339 215.291 7.44152 215.789 7.94273C218.182 10.3507 220.57 12.7532 222.962 15.1612C222.995 15.1939 223.022 15.232 223.071 15.281C222.811 15.4009 222.611 15.2974 222.421 15.1612C221.36 14.4312 220.293 13.6957 219.238 12.9602C218.193 12.2357 216.959 12.2901 216.017 13.1182C215.194 13.8373 214.95 15.1176 215.475 16.1254C215.621 16.4033 215.816 16.6648 216.033 16.8827C217.451 18.3318 218.886 19.7755 220.326 21.2029C220.683 21.5515 221.084 21.8457 221.506 22.1944Z" fill="#333F48"/>
<path d="M227.662 20.3149C228.28 19.6938 228.891 19.0782 229.509 18.4571C230.126 17.8361 230.824 17.8415 231.441 18.4626C231.544 18.5661 231.642 18.6642 231.744 18.7677C232.248 19.2852 232.286 20.0098 231.782 20.5273C230.488 21.8512 229.189 23.1587 227.874 24.4607C227.376 24.951 226.683 24.9292 226.168 24.4662C226.027 24.3354 225.892 24.1992 225.762 24.0576C225.237 23.4964 225.232 22.7828 225.768 22.2325C226.39 21.5842 227.029 20.9523 227.662 20.3149Z" fill="#333F48"/>
<path d="M193.163 10.0378H191.466V14.6667H190.104V10.0378H188.439V8.97925H193.163V10.0378Z" fill="#333F48"/>
<path d="M195.034 14.6667H193.675V8.97925H195.034V14.6667Z" fill="#333F48"/>
<path d="M199.327 12.2566H197.185V13.6121H199.716V14.6667H195.822V8.97925H199.723V10.0378H197.185V11.2371H199.327V12.2566ZM199.296 8.698H198.454L197.895 8.24487L197.34 8.698H196.486L197.577 7.84644H198.213L199.296 8.698ZM196.769 8.23706H196.086L195.158 7.16284H196.09L196.769 8.23706Z" fill="#333F48"/>
<path d="M204.832 14.6667H203.477L201.474 11.1277V14.6667H200.112V8.97925H201.474L203.473 12.5183V8.97925H204.832V14.6667Z" fill="#333F48"/>
<path d="M190.517 18.3125L191.779 22.2695L193.036 18.3125H194.83V24H193.463V22.6719L193.595 19.9531L192.229 24H191.328L189.958 19.9492L190.09 22.6719V24H188.728V18.3125H190.517Z" fill="#333F48"/>
<path d="M198.821 22.9375H196.953L196.627 24H195.172L197.245 18.3125H198.526L200.614 24H199.15L198.821 22.9375ZM197.279 21.8789H198.494L197.885 19.9062L197.279 21.8789ZM199.337 16.7812C199.337 17.138 199.206 17.4271 198.945 17.6484C198.683 17.8698 198.335 17.9805 197.901 17.9805C197.466 17.9805 197.118 17.8698 196.856 17.6484C196.595 17.4271 196.464 17.138 196.464 16.7812H197.353C197.353 16.9375 197.401 17.0599 197.497 17.1484C197.595 17.2344 197.73 17.2773 197.901 17.2773C198.071 17.2773 198.203 17.2357 198.296 17.1523C198.392 17.0664 198.44 16.9427 198.44 16.7812H199.337ZM197.186 24.8633C197.186 24.694 197.255 24.5547 197.392 24.4453C197.532 24.3359 197.705 24.2812 197.912 24.2812C198.119 24.2812 198.291 24.3359 198.428 24.4453C198.568 24.5547 198.638 24.694 198.638 24.8633C198.638 25.0326 198.568 25.1719 198.428 25.2812C198.291 25.3906 198.119 25.4453 197.912 25.4453C197.705 25.4453 197.532 25.3906 197.392 25.2812C197.255 25.1719 197.186 25.0326 197.186 24.8633Z" fill="#333F48"/>
<path d="M204.841 19.3711H203.145V24H201.783V19.3711H200.117V18.3125H204.841V19.3711Z" fill="#333F48"/>
<path d="M244.5 4C244.5 2.067 246.067 0.5 248 0.5H293C294.933 0.5 296.5 2.067 296.5 4V28C296.5 29.933 294.933 31.5 293 31.5H248C246.067 31.5 244.5 29.933 244.5 28V4Z" fill="white" stroke="#E8E8EA"/>
<path d="M259.424 8.00097H263.214C264.61 7.97836 266.141 8.3415 266.141 10.0323C266.141 10.7585 265.71 11.3485 265.075 11.6662C265.937 11.9158 266.471 12.6649 266.471 13.584C266.471 15.5131 265.052 16.103 263.316 16.103H259.424V8.00097ZM261.534 11.1897H263.169C263.532 11.1897 264.031 10.9967 264.031 10.4181C264.031 9.82797 263.611 9.63518 263.169 9.63518H261.534V11.1897ZM261.534 14.4123H263.225C263.895 14.4123 264.36 14.1741 264.36 13.5046C264.36 12.7896 263.861 12.5513 263.225 12.5513H261.534V14.4123Z" fill="#333333"/>
<path d="M269.817 8.00104H271.962L274.991 16.1031H272.79L272.291 14.6507H269.465L268.955 16.1031H266.787L269.817 8.00104ZM269.953 13.0849H271.791L270.895 10.2481H270.872L269.953 13.0849Z" fill="#333333"/>
<path d="M275.581 8.00104H277.749L280.563 12.9939H280.586V8.00104H282.572V16.1031H280.404L277.59 11.0537H277.568V16.1031H275.581V8.00104Z" fill="#333333"/>
<path d="M284.012 8.00104H286.122V11.1104L288.789 8.00104H291.41L288.414 11.1898L291.785 16.1032H289.164L286.985 12.6991L286.122 13.607V16.1033H284.012V8.00114L284.012 8.00104Z" fill="#333333"/>
<path d="M254.116 19.043H252.451V23.3721H250.998V19.043H249.333V17.7926H254.116V19.043Z" fill="#333333"/>
<path d="M254.756 17.7916H257.6C258.585 17.7916 259.554 18.2371 259.554 19.3621C259.554 19.9639 259.265 20.5344 258.679 20.7611V20.7766C259.272 20.9175 259.444 21.5814 259.491 22.1129C259.507 22.3472 259.531 23.1677 259.726 23.3711H258.288C258.163 23.1836 258.139 22.6366 258.124 22.4803C258.084 21.9176 257.991 21.3395 257.311 21.3395H256.209V23.3711H254.756V17.7916ZM256.21 20.2139H257.428C257.866 20.2139 258.1 19.9795 258.1 19.5577C258.1 19.1437 257.772 18.9558 257.366 18.9558H256.209C256.21 18.9558 256.21 20.2139 256.21 20.2139Z" fill="#333333"/>
<path d="M261.914 17.7916H263.391L265.477 23.371H263.961L263.618 22.3706H261.672L261.32 23.371H259.828L261.914 17.7916ZM262.008 21.2924H263.274L262.657 19.3385H262.641L262.008 21.2924Z" fill="#333333"/>
<path d="M265.884 17.7916H267.377L269.315 21.2299H269.331V17.7916H270.698V23.371H269.206L267.267 19.8938H267.252V23.371H265.884V17.7916Z" fill="#333333"/>
<path d="M272.823 21.4957C272.855 22.152 273.261 22.3629 273.879 22.3629C274.316 22.3629 274.769 22.2067 274.769 21.7926C274.769 21.3003 273.972 21.2066 273.168 20.9797C272.37 20.7532 271.534 20.3939 271.534 19.37C271.534 18.151 272.761 17.6743 273.808 17.6743C274.918 17.6743 276.035 18.2133 276.043 19.4715H274.59C274.613 18.9636 274.136 18.7995 273.691 18.7995C273.378 18.7995 272.988 18.9088 272.988 19.2763C272.988 19.706 273.792 19.7841 274.605 20.0108C275.41 20.2374 276.223 20.6124 276.223 21.6204C276.223 23.035 275.019 23.4883 273.793 23.4883C272.511 23.4883 271.378 22.9255 271.37 21.4956H272.823V21.4957Z" fill="#333333"/>
<path d="M276.903 17.7916H281.013V18.9559H278.356V20.0968H280.654V21.2218H278.356V23.371H276.903V17.7916Z" fill="#333333"/>
<path d="M281.678 17.7916H286.124V18.9559H283.131V19.9327H285.866V21.0579H283.131V22.1208H286.202V23.3709H281.678L281.678 17.7916Z" fill="#333333"/>
<path d="M287.031 17.7916H289.875C290.86 17.7916 291.828 18.2371 291.828 19.3621C291.828 19.9639 291.539 20.5344 290.953 20.7611V20.7766C291.547 20.9175 291.719 21.5814 291.766 22.1129C291.782 22.3472 291.805 23.1677 292 23.3711H290.562C290.437 23.1836 290.414 22.6366 290.398 22.4803C290.359 21.9176 290.266 21.3395 289.586 21.3395H288.484V23.3711H287.031V17.7916ZM288.484 20.2139H289.703C290.141 20.2139 290.375 19.9795 290.375 19.5577C290.375 19.1437 290.047 18.9558 289.64 18.9558H288.484V20.2139Z" fill="#333333"/>
<path d="M258.131 8H249.333V9.76164H258.131V8Z" fill="#D92B2B"/>
<path d="M258.131 14.342H249.333V16.1036H258.131V14.342Z" fill="#D92B2B"/>
<path d="M258.131 11.1705H249.333V12.9321H258.131V11.1705Z" fill="#D92B2B"/>
<path d="M0.5 42C0.5 40.067 2.067 38.5 4 38.5H49C50.933 38.5 52.5 40.067 52.5 42V66C52.5 67.933 50.933 69.5 49 69.5H4C2.067 69.5 0.5 67.933 0.5 66V42Z" fill="white" stroke="#E8E8EA"/>
<g clip-path="url(#clip0_201_1954)">
<path d="M20.4003 46.0043L9.48275 47.4593C9.48275 47.4593 9 47.5176 9 48.0967V58.465C9 58.465 9.06373 59.6787 10.4523 59.6787H22.8263C22.8263 59.6787 23.9287 59.4142 23.9287 58.3118V49.7538C23.9287 49.7538 23.9504 48.5401 22.4954 48.5401H10.5635C10.5635 48.5401 10.0998 48.4628 9.98178 47.9746C9.94652 47.7821 10.0225 47.7617 10.2272 47.7617H21.1827V46.582C21.1827 46.582 21.1448 45.9487 20.4003 46.0043Z" fill="#ED4C2F"/>
<path d="M16.686 57.9183C15.7802 57.9183 15.1144 57.5495 14.1313 56.5758C13.9563 56.4022 13.955 56.1202 14.1285 55.9439C14.3021 55.769 14.5842 55.7676 14.7605 55.9412C15.7951 56.965 16.2765 57.2199 17.1037 56.9962C17.5838 56.866 18.015 56.2531 18.0407 55.5506C18.0597 55.0042 17.6746 54.6475 16.8962 54.4916C15.4968 54.2122 14.671 53.6766 14.4418 52.9009C14.2574 52.2758 14.4987 51.5788 15.1063 50.9875L15.1307 50.9645C16.4352 49.8742 17.9499 50.6865 18.5682 51.2682C18.7472 51.4377 18.7567 51.7198 18.5872 51.9002C18.4191 52.0792 18.137 52.0887 17.9567 51.9205C17.9038 51.8717 16.7322 50.8072 15.7165 51.6398C15.3693 51.9829 15.2134 52.3585 15.2975 52.6473C15.4222 53.0677 16.0514 53.4122 17.0698 53.6156C18.8015 53.9614 18.9493 55.1059 18.933 55.5818C18.8964 56.6179 18.0285 57.7786 17.2149 57.8817C17.0291 57.9047 16.8542 57.9183 16.6874 57.9183H16.686Z" fill="white"/>
<path d="M28.5217 48.4789C28.3454 48.3717 28.1365 48.2741 27.887 48.2063C27.4273 48.0761 27.0937 47.9052 26.9351 47.691C26.7927 47.5039 26.7927 47.2598 26.9636 46.9479C27.0598 46.7607 27.2917 46.6414 27.5928 46.6197C27.9047 46.5967 28.2843 46.6712 28.6817 46.8746C28.7779 46.9262 28.9027 46.8855 28.9542 46.7838C29.0058 46.6875 28.9651 46.5628 28.8634 46.5112C28.3983 46.2726 27.9399 46.1831 27.5589 46.2102C27.1168 46.2441 26.771 46.4366 26.6001 46.7485C26.3452 47.2191 26.3615 47.6042 26.6001 47.9283C26.8212 48.2171 27.2239 48.4382 27.7731 48.5914C27.9887 48.6538 28.1704 48.7338 28.3115 48.8179C28.5271 48.948 28.6681 49.1013 28.7373 49.2654C28.8051 49.4186 28.8105 49.5881 28.7657 49.7535C28.7427 49.8335 28.7034 49.9122 28.6586 49.9922C28.6586 50.003 28.6478 50.0153 28.6356 50.0315C28.4715 50.2756 28.2043 50.4004 27.8816 50.4004C27.525 50.4004 27.0883 50.258 26.6232 49.9746C26.5554 49.9352 26.493 49.8946 26.4361 49.8552C26.3398 49.7929 26.215 49.8213 26.1526 49.9122C26.0903 50.0085 26.1187 50.1332 26.2096 50.1956C26.2828 50.2471 26.352 50.2865 26.4022 50.3312C26.9351 50.654 27.4395 50.8126 27.8708 50.8126C28.3359 50.8126 28.721 50.6309 28.9651 50.2688C28.9705 50.258 28.9827 50.2349 28.999 50.2119C29.0668 50.1048 29.1183 49.9854 29.1522 49.8715C29.2254 49.622 29.2146 49.3562 29.1075 49.1121C29.0058 48.8735 28.8132 48.6524 28.523 48.4775L28.5217 48.4789Z" fill="#ED4C2F"/>
<path d="M31.6447 48.0314C31.4345 47.9744 31.1917 47.9798 30.9422 48.0544C30.7063 48.1236 30.4662 48.2551 30.2398 48.4517V46.4041C30.2398 46.297 30.1489 46.2115 30.035 46.2115C29.9211 46.2115 29.8303 46.297 29.8303 46.4041V50.616C29.8303 50.7231 29.9211 50.8085 30.035 50.8085C30.1489 50.8085 30.2398 50.7231 30.2398 50.616V49.0389C30.2398 49.0389 30.2479 49.0321 30.2506 49.0281C30.5056 48.7162 30.789 48.5236 31.0616 48.4382C31.2378 48.3866 31.4019 48.3812 31.5429 48.4205C31.6786 48.4599 31.787 48.5345 31.8657 48.6416C31.9457 48.7555 31.9904 48.9074 31.9904 49.1013V50.6092C31.9904 50.7231 32.0813 50.814 32.1952 50.814C32.3091 50.814 32.4 50.7231 32.4 50.6092V49.1013C32.4 48.8233 32.3267 48.5914 32.1952 48.4097C32.0596 48.2171 31.867 48.0924 31.6447 48.03V48.0314Z" fill="#ED4C2F"/>
<path d="M34.4001 47.992C34.015 47.992 33.657 48.1507 33.4021 48.4056C33.1471 48.6606 32.9885 49.0118 32.9885 49.4037C32.9885 49.7956 33.1471 50.1468 33.4021 50.4017C33.657 50.6567 34.0082 50.8153 34.4001 50.8153C34.792 50.8153 35.1432 50.6567 35.3982 50.4017C35.6531 50.1468 35.8118 49.7956 35.8118 49.4037C35.8118 49.0118 35.6531 48.6606 35.3982 48.4056C35.1432 48.1507 34.792 47.992 34.4001 47.992ZM35.1147 50.1183C34.9276 50.3 34.6781 50.4126 34.4001 50.4126C34.1221 50.4126 33.8672 50.2987 33.6855 50.1183C33.5038 49.9366 33.3912 49.6817 33.3912 49.4037C33.3912 49.1257 33.5051 48.8708 33.6855 48.689C33.8726 48.5073 34.1221 48.3948 34.4001 48.3948C34.6781 48.3948 34.933 48.5087 35.1147 48.689C35.2965 48.8708 35.409 49.1257 35.409 49.4037C35.409 49.6817 35.2951 49.9366 35.1147 50.1183Z" fill="#ED4C2F"/>
<path d="M37.8418 47.992C37.4513 47.992 37.0987 48.1507 36.8437 48.4056C36.8261 48.4165 36.8153 48.4341 36.799 48.4504V48.1954C36.799 48.0815 36.7081 47.9907 36.5942 47.9907C36.4803 47.9907 36.3895 48.0815 36.3895 48.1954V52.2093C36.3895 52.3232 36.4803 52.4141 36.5942 52.4141C36.7081 52.4141 36.799 52.3232 36.799 52.2093V50.3556C36.8166 50.3665 36.8275 50.3841 36.8437 50.4004C37.0987 50.6553 37.4499 50.814 37.8418 50.814C38.2337 50.814 38.5849 50.6553 38.8398 50.4004C39.0948 50.1454 39.2534 49.7942 39.2534 49.4023C39.2534 49.0104 39.0948 48.6592 38.8398 48.4043C38.5849 48.1493 38.2337 47.9907 37.8418 47.9907V47.992ZM38.551 50.1183C38.3639 50.3 38.1144 50.4126 37.8364 50.4126C37.5584 50.4126 37.3034 50.2987 37.1217 50.1183C36.94 49.9366 36.8275 49.6817 36.8275 49.4037C36.8275 49.1257 36.9414 48.8707 37.1217 48.689C37.3089 48.5073 37.5584 48.3948 37.8364 48.3948C38.1144 48.3948 38.3693 48.5087 38.551 48.689C38.7327 48.8694 38.8453 49.1257 38.8453 49.4037C38.8453 49.6817 38.7314 49.9366 38.551 50.1183Z" fill="#ED4C2F"/>
<path d="M42.0645 48.3649C41.8326 48.1263 41.5139 47.9907 41.1681 47.9907C40.8224 47.9907 40.4996 48.1208 40.2718 48.3649C39.7836 48.8924 39.7904 49.4593 39.983 50.0315C40.0684 50.2919 40.2487 50.479 40.4589 50.616C40.6691 50.7516 40.9241 50.8207 41.2129 50.814C41.4963 50.8085 41.8136 50.7407 42.154 50.5983C42.2557 50.5536 42.3072 50.4343 42.2611 50.3326C42.2164 50.2309 42.097 50.1793 41.9953 50.2254C41.7011 50.3502 41.4339 50.4126 41.2075 50.4126C40.9973 50.4126 40.8169 50.3678 40.6745 50.277C40.5389 50.1861 40.4305 50.0559 40.3572 49.8796C40.3179 49.7657 40.284 49.641 40.2664 49.5054H42.1431C42.2448 49.5054 42.5798 49.5284 42.4035 48.9548C42.3357 48.75 42.2557 48.5575 42.0631 48.3649H42.0645ZM40.2894 49.0904C40.341 48.9209 40.4372 48.7731 40.5552 48.6538C40.7193 48.4951 40.9349 48.3988 41.1681 48.3988C41.4014 48.3988 41.6156 48.4951 41.7811 48.6538C41.9004 48.7731 41.9913 48.9196 42.0536 49.0904H40.2908H40.2894Z" fill="#ED4C2F"/>
<path d="M45.5008 48.9548C45.4329 48.75 45.3529 48.5575 45.1604 48.3649C44.9285 48.1263 44.6098 47.9907 44.264 47.9907C43.9182 47.9907 43.5955 48.1208 43.3677 48.3649C42.8795 48.8924 42.8863 49.4593 43.0788 50.0315C43.1643 50.2919 43.3446 50.479 43.5548 50.616C43.765 50.7516 44.0199 50.8207 44.3088 50.814C44.5922 50.8085 44.9095 50.7407 45.2499 50.5983C45.3516 50.5536 45.4031 50.4343 45.357 50.3326C45.3109 50.2309 45.1929 50.1793 45.0912 50.2254C44.797 50.3502 44.5298 50.4126 44.3034 50.4126C44.0932 50.4126 43.9128 50.3678 43.7704 50.277C43.6348 50.1861 43.5263 50.0559 43.4531 49.8796C43.4138 49.7657 43.3799 49.641 43.3623 49.5054H45.239C45.3407 49.5054 45.6757 49.5284 45.4994 48.9548H45.5008ZM43.3867 49.0904C43.4382 48.9209 43.5345 48.7731 43.6525 48.6538C43.8165 48.4951 44.0321 48.3988 44.2654 48.3988C44.4986 48.3988 44.7129 48.4951 44.8783 48.6538C44.9977 48.7731 45.0885 48.9196 45.1509 49.0904H43.388H43.3867Z" fill="#ED4C2F"/>
<path d="M29.197 51.8256H26.2611V59.6771H27.4517V57.3339H29.3244C29.9523 57.3339 30.5747 57.182 31.1158 56.8633C31.7572 56.4823 32.3999 55.8124 32.3999 54.6543C32.3999 53.5681 31.8358 52.8792 31.2364 52.4534C30.6371 52.0276 29.9251 51.8256 29.1983 51.8256H29.197ZM29.5712 56.0782H27.4531V53.0013H29.3651C29.399 53.0013 29.4302 53.0026 29.4641 53.0067C29.7543 53.0393 31.0263 53.2589 31.0263 54.6231C31.0263 56.0795 29.5712 56.0795 29.5712 56.0795V56.0782Z" fill="#ED4C2F"/>
<path d="M37.119 54.0983V54.6502C36.6363 54.257 36.022 54.0224 35.3521 54.0224C33.8035 54.0224 32.5424 55.2821 32.5424 56.8307C32.5424 58.3793 33.8035 59.6405 35.3521 59.6405C36.022 59.6405 36.6363 59.4059 37.119 59.0126V59.6405H38.3096V54.0983H37.119ZM35.3521 58.5977C34.3771 58.5977 33.5852 57.8071 33.5852 56.8307C33.5852 55.8544 34.3771 55.0652 35.3521 55.0652C36.3271 55.0652 37.1177 55.8544 37.119 56.828V56.8321C37.119 57.8071 36.3284 58.5977 35.3521 58.5977Z" fill="#ED4C2F"/>
<path d="M38.8452 54.0224H40.4372L42.3072 57.5996L44.1107 54.0224H45.5509L41.2644 62H39.8623L41.4963 59.0384L38.8452 54.0224Z" fill="#ED4C2F"/>
</g>
<path d="M61.5 42C61.5 40.067 63.067 38.5 65 38.5H110C111.933 38.5 113.5 40.067 113.5 42V66C113.5 67.933 111.933 69.5 110 69.5H65C63.067 69.5 61.5 67.933 61.5 66V42Z" fill="white" stroke="#E8E8EA"/>
<g clip-path="url(#clip1_201_1954)">
<path d="M88.9975 53.6095H89.3576C89.5007 53.6095 89.6169 53.4933 89.6169 53.3503V50.6846C89.6169 50.5415 89.5007 50.4254 89.3576 50.4254H88.9975C88.8544 50.4254 88.7383 50.5415 88.7383 50.6846V53.3503C88.7383 53.4933 88.8544 53.6095 88.9975 53.6095Z" fill="#EE0033"/>
<path d="M86.492 53.6456C86.7097 53.6456 86.9653 53.6333 87.1004 53.3631L88.6172 50.4247H88.0627C87.8359 50.4247 87.6451 50.5611 87.5528 50.7555L86.5966 52.7859C86.574 52.8342 86.5293 52.9119 86.4914 52.9119C86.4535 52.9119 86.4089 52.8336 86.3863 52.7859L85.4239 50.7555C85.3316 50.5611 85.1409 50.4247 84.914 50.4247H84.3583L85.8751 53.3631C86.0255 53.6517 86.3337 53.6456 86.4908 53.6456" fill="#EE0033"/>
<path d="M105.7 53.6095C105.843 53.6095 105.959 53.4934 105.959 53.3503V53.069H105.742C105.584 53.069 105.254 53.0629 105.058 52.9309C104.803 52.7627 104.825 52.4619 104.825 52.2461V49.9375C104.825 49.7944 104.709 49.6783 104.566 49.6783H104.206C104.063 49.6783 103.947 49.7944 103.947 49.9375V52.5708C103.947 52.9731 104.089 53.2078 104.345 53.376C104.592 53.538 104.878 53.6101 105.411 53.6101H105.7V53.6095Z" fill="#EE0033"/>
<path d="M94.6939 52.5701C94.6939 52.9731 94.8364 53.2072 95.0919 53.3754C95.3396 53.5374 95.6251 53.6095 96.1588 53.6095H96.448C96.5911 53.6095 96.7073 53.4934 96.7073 53.3503V53.069H96.4896C96.3319 53.069 96.0011 53.0629 95.8061 52.9309C95.5505 52.7627 95.5731 52.4619 95.5731 52.2461V50.9665H97.4055V52.5708C97.4055 52.9737 97.5479 53.2078 97.8035 53.376C98.0511 53.538 98.3366 53.6101 98.8698 53.6101H99.1583C99.3014 53.6101 99.4176 53.494 99.4176 53.3509V53.0697H99.1999C99.0422 53.0697 98.7114 53.0635 98.5164 52.9315C98.2608 52.7633 98.2834 52.4625 98.2834 52.2467V50.9671H99.1357C99.2788 50.9671 99.3949 50.8509 99.3949 50.7078V50.4266H98.2834V49.9387C98.2834 49.7956 98.1673 49.6795 98.0242 49.6795H97.6641C97.521 49.6795 97.4049 49.7956 97.4049 49.9387V50.4266H95.5725V49.9387C95.5725 49.7956 95.4563 49.6795 95.3133 49.6795H94.9532C94.8101 49.6795 94.6939 49.7956 94.6939 49.9387V50.4266H94.1455V50.7078C94.1455 50.8509 94.2617 50.9671 94.4047 50.9671H94.6939V52.5714V52.5701Z" fill="#EE0033"/>
<path d="M93.7628 52.1318C93.9278 51.9997 93.9505 51.8132 93.9505 51.6512C93.9505 51.2489 93.8526 50.8521 93.3874 50.618C93.0193 50.4315 92.5387 50.4138 92.0729 50.4138C91.6975 50.4138 91.0213 50.4138 90.586 50.714C90.1506 51.0148 90.1127 51.4531 90.1127 52.048C90.1127 52.4687 90.1354 52.907 90.3983 53.2078C90.729 53.5802 91.2096 53.6101 91.6149 53.6101H93.5634C93.7065 53.6101 93.8227 53.494 93.8227 53.3509V53.0697H91.8772C91.5544 53.0697 91.1863 53.0336 91.0738 52.6912C91.0439 52.5952 91.0213 52.3904 91.0213 52.2528H93.3348C93.4925 52.2528 93.6423 52.229 93.7628 52.1324M92.8463 51.7117H91.5966C91.2787 51.7117 91.0213 51.8573 91.0213 52.0364V51.7117C91.0286 51.5014 91.0213 51.3272 91.2016 51.1652C91.4419 50.9487 91.8026 50.9548 92.035 50.9548C92.2826 50.9548 92.5681 50.9671 92.7857 51.0991C92.9135 51.1774 93.0413 51.3272 93.0413 51.5259C93.0413 51.6096 93.0187 51.7124 92.8463 51.7124" fill="#EE0033"/>
<path d="M101.115 53.6095H103.064C103.207 53.6095 103.323 53.4934 103.323 53.3503V53.069H101.378C101.056 53.069 100.687 53.033 100.574 52.6906C100.544 52.5946 100.522 52.3898 100.522 52.2522H102.835C102.992 52.2522 103.143 52.2284 103.263 52.1318C103.428 51.9997 103.45 51.8132 103.45 51.6512C103.45 51.2489 103.353 50.8521 102.887 50.618C102.519 50.4315 102.039 50.4138 101.573 50.4138C101.197 50.4138 100.521 50.4138 100.086 50.714C99.6505 51.0148 99.6126 51.4531 99.6126 52.048C99.6126 52.4687 99.6352 52.907 99.8981 53.2078C100.228 53.5802 100.709 53.6101 101.115 53.6101M100.522 51.7117C100.529 51.5014 100.522 51.3272 100.702 51.1652C100.942 50.9487 101.303 50.9548 101.536 50.9548C101.784 50.9548 102.069 50.9671 102.287 51.0991C102.415 51.1774 102.542 51.3272 102.542 51.5259C102.542 51.6096 102.52 51.7124 102.347 51.7124H101.097C100.779 51.7124 100.522 51.8579 100.522 52.037V51.7124V51.7117Z" fill="#EE0033"/>
<path d="M89.1773 50.1245H89.3571C89.5001 50.1245 89.6163 50.0084 89.6163 49.8653V49.7932C89.6163 49.6501 89.5001 49.5339 89.3571 49.5339H88.997C88.8539 49.5339 88.7377 49.6501 88.7377 49.7932V50.4253H88.7414C88.7659 50.278 88.9334 50.1245 89.1773 50.1245Z" fill="#EE0033"/>
<path d="M84.3596 58.4609V55.8148C84.3596 55.4541 84.5809 55.2737 85.0229 55.2737H88.4064C88.8882 55.2737 89.2611 55.3556 89.5265 55.5201C89.7918 55.6846 89.9245 55.9652 89.9245 56.362V57.9693C89.9245 58.2408 89.7013 58.4609 89.4256 58.4609H89.0618V56.5485C89.0618 56.3002 88.9982 56.1156 88.8704 55.9952C88.7426 55.8747 88.5335 55.8148 88.2437 55.8148H87.573V57.9859C87.573 58.2481 87.3572 58.4615 87.0907 58.4615H86.7104V55.8154H85.4429C85.2956 55.8154 85.2216 55.8753 85.2216 55.9958V57.9852C85.2216 58.2481 85.0052 58.4615 84.7386 58.4615H84.3596V58.4609Z" fill="black"/>
<path d="M94.853 58.4609V55.8148C94.853 55.4541 95.0743 55.2737 95.5163 55.2737H96.8871C97.3689 55.2737 97.7424 55.3556 98.0078 55.5201C98.2731 55.6846 98.4058 55.9652 98.4058 56.362V58.4609H97.5431V56.5485C97.5431 56.3002 97.4795 56.1156 97.3517 55.9952C97.224 55.8747 97.0155 55.8148 96.7251 55.8148H95.9364C95.789 55.8148 95.715 55.8747 95.715 55.9952V58.4609H94.853Z" fill="black"/>
<path d="M107 55.2737L104.671 59.4899H103.794L104.391 58.4493L102.651 55.2737H103.082C103.365 55.2737 103.623 55.4308 103.751 55.6803L104.796 57.7217L105.928 55.6344C106.048 55.4125 106.282 55.2737 106.537 55.2737H107Z" fill="black"/>
<path d="M94.4678 56.8853C94.4678 57.5028 94.3045 57.9296 93.9774 58.1662C93.651 58.4028 93.1215 58.5208 92.389 58.5208C91.6566 58.5208 91.1271 58.4028 90.8006 58.1662C90.4735 57.9296 90.3103 57.5028 90.3103 56.8853C90.3103 56.2678 90.4754 55.8527 90.8043 55.6161C91.1332 55.3795 91.6615 55.2615 92.389 55.2615C93.1166 55.2615 93.6448 55.3795 93.9738 55.6161C94.3027 55.8527 94.4678 56.2758 94.4678 56.8853ZM91.2023 56.8853C91.2023 57.2821 91.2904 57.564 91.4677 57.7303C91.6444 57.8966 91.9513 57.9797 92.389 57.9797C92.8268 57.9797 93.1337 57.8966 93.3104 57.7303C93.4871 57.564 93.5758 57.2821 93.5758 56.8853C93.5758 56.4885 93.4871 56.214 93.3104 56.049C93.1337 55.8845 92.8262 55.8026 92.389 55.8026C91.9519 55.8026 91.6444 55.8851 91.4677 56.049C91.2904 56.2134 91.2023 56.4922 91.2023 56.8853Z" fill="black"/>
<path d="M100.34 58.4352H102.268C102.41 58.4352 102.525 58.3203 102.525 58.1784V57.8997H100.6C100.281 57.8997 99.9165 57.8642 99.8053 57.5255C99.7753 57.4301 99.7533 57.2283 99.7533 57.0914H102.042C102.198 57.0914 102.346 57.0675 102.465 56.9722C102.629 56.8413 102.651 56.6573 102.651 56.4965C102.651 56.0985 102.555 55.706 102.094 55.4743C101.73 55.2902 101.254 55.2725 100.793 55.2725C100.422 55.2725 99.7527 55.2725 99.3223 55.5696C98.8912 55.8668 98.8539 56.3009 98.8539 56.889C98.8539 57.3048 98.8766 57.7389 99.1364 58.036C99.4635 58.4047 99.9386 58.4346 100.34 58.4346M99.7533 56.5564C99.7606 56.3485 99.7533 56.1761 99.9318 56.0153C100.17 55.8013 100.526 55.8075 100.757 55.8075C101.002 55.8075 101.284 55.8191 101.499 55.9499C101.626 56.027 101.752 56.1755 101.752 56.3718C101.752 56.4549 101.729 56.5558 101.559 56.5558H100.323C100.008 56.5558 99.7533 56.6995 99.7533 56.8768V56.5558V56.5564Z" fill="black"/>
<path d="M75.4716 60.9432C79.0458 60.9432 81.9432 58.0458 81.9432 54.4716C81.9432 50.8974 79.0458 48 75.4716 48C71.8974 48 69 50.8974 69 54.4716C69 58.0458 71.8974 60.9432 75.4716 60.9432Z" fill="#EE0033"/>
<path d="M74.766 50.4168H73.8917C73.4301 50.4168 73.056 50.791 73.056 51.2526V57.6906C73.056 58.1522 73.4301 58.5263 73.8917 58.5263H74.766C74.8816 58.5263 74.9751 58.4328 74.9751 58.3172V57.693C74.9751 57.5775 74.8816 57.4839 74.766 57.4839H73.4081V51.4586H74.766C74.8816 51.4586 74.9751 51.3651 74.9751 51.2495V50.6253C74.9751 50.5097 74.8816 50.4162 74.766 50.4162V50.4168Z" fill="white"/>
<path d="M77.0515 50.4169H76.1772C76.0616 50.4169 75.9681 50.5104 75.9681 50.626V51.2502C75.9681 51.3658 76.0616 51.4593 76.1772 51.4593H77.5351V57.4846H76.1772C76.0616 57.4846 75.9681 57.5781 75.9681 57.6937V58.3179C75.9681 58.4335 76.0616 58.527 76.1772 58.527H77.0515C77.5131 58.527 77.8872 58.1528 77.8872 57.6912V51.2526C77.8872 50.791 77.5131 50.4169 77.0515 50.4169Z" fill="white"/>
</g>
<defs>
<linearGradient id="paint0_linear_201_1954" x1="154.108" y1="15.595" x2="161.896" y2="15.595" gradientUnits="userSpaceOnUse">
<stop stop-color="#58B03A"/>
<stop offset="1" stop-color="#55B330"/>
</linearGradient>
<linearGradient id="paint1_linear_201_1954" x1="136.538" y1="16.1812" x2="144.358" y2="16.1812" gradientUnits="userSpaceOnUse">
<stop stop-color="#0F6EB6"/>
<stop offset="1" stop-color="#006DBA"/>
</linearGradient>
<linearGradient id="paint2_linear_201_1954" x1="145.421" y1="15.7786" x2="153.214" y2="15.7786" gradientUnits="userSpaceOnUse">
<stop stop-color="#DE0D3D"/>
<stop offset="1" stop-color="#E30138"/>
</linearGradient>
<clipPath id="clip0_201_1954">
<rect width="36.5509" height="16" fill="white" transform="translate(9 46)"/>
</clipPath>
<clipPath id="clip1_201_1954">
<rect width="38" height="12.9432" fill="white" transform="translate(69 48)"/>
</clipPath>
</defs>
</svg>
